{
.appVersion = "3151";
.formatVersion = 3;
DisplayStrings = (
"ABBEY ABCDEFGHIJKLMNOPQRSTUVWXZYabcdefghjijklmnopqrstuvwxzy",
tww,
" ",
".,",
""
);
date = "2023-12-23 11:50:38 +0000";
familyName = "Seaweed Extended";
fontMaster = (
{
id = m01;
metricValues = (
{
over = 16;
pos = 600;
},
{
over = 16;
pos = 300;
},
{
over = 16;
pos = 500;
},
{
over = -16;
},
{
over = -16;
pos = -100;
}
);
name = Regular;
userData = {
GSCornerRadius = 35;
};
}
);
glyphs = (
{
glyphname = A;
lastChange = "2024-01-15 12:35:20 +0000";
layers = (
{
layerId = m01;
shapes = (
{
closed = 1;
nodes = (
(114,0,ls),
(134,0,o),
(150,16,o),
(150,36,cs),
(150,264,ls),
(150,284,o),
(166,300,o),
(186,300,cs),
(214,300,ls),
(234,300,o),
(250,284,o),
(250,264,cs),
(250,36,ls),
(250,16,o),
(266,0,o),
(286,0,cs),
(314,0,ls),
(334,0,o),
(350,16,o),
(350,36,cs),
(350,564,ls),
(350,584,o),
(334,600,o),
(314,600,cs),
(86,600,ls),
(66,600,o),
(50,584,o),
(50,564,cs),
(50,36,ls),
(50,16,o),
(66,0,o),
(86,0,cs)
);
},
{
closed = 1;
nodes = (
(150,464,ls),
(150,484,o),
(166,500,o),
(186,500,cs),
(214,500,ls),
(234,500,o),
(250,484,o),
(250,464,cs),
(250,436,ls),
(250,416,o),
(234,400,o),
(214,400,cs),
(186,400,ls),
(166,400,o),
(150,416,o),
(150,436,cs)
);
}
);
width = 400;
}
);
unicode = 65;
},
{
glyphname = B;
lastChange = "2024-01-15 12:35:57 +0000";
layers = (
{
layerId = m01;
shapes = (
{
closed = 1;
nodes = (
(50,30,ls),
(50,4,o),
(54,0,o),
(80,0,cs),
(314,0,ls),
(334,0,o),
(350,16,o),
(350,36,cs),
(350,564,ls),
(350,584,o),
(334,600,o),
(314,600,cs),
(80,600,ls),
(54,600,o),
(50,596,o),
(50,570,cs)
);
},
{
closed = 1;
nodes = (
(150,264,ls),
(150,284,o),
(166,300,o),
(186,300,cs),
(214,300,ls),
(234,300,o),
(250,284,o),
(250,264,cs),
(250,236,ls),
(250,216,o),
(234,200,o),
(214,200,cs),
(186,200,ls),
(166,200,o),
(150,216,o),
(150,236,cs)
);
},
{
closed = 1;
nodes = (
(150,464,ls),
(150,484,o),
(166,500,o),
(186,500,cs),
(214,500,ls),
(234,500,o),
(250,484,o),
(250,464,cs),
(250,436,ls),
(250,416,o),
(234,400,o),
(214,400,cs),
(186,400,ls),
(166,400,o),
(150,416,o),
(150,436,cs)
);
}
);
width = 400;
}
);
unicode = 66;
},
{
glyphname = C;
lastChange = "2024-01-15 12:25:48 +0000";
layers = (
{
layerId = m01;
shapes = (
{
closed = 1;
nodes = (
(50,36,ls),
(50,16,o),
(66,0,o),
(86,0,cs),
(314,0,ls),
(334,0,o),
(350,16,o),
(350,36,cs),
(350,164,ls),
(350,184,o),
(334,200,o),
(314,200,cs),
(186,200,ls),
(166,200,o),
(150,216,o),
(150,236,cs),
(150,464,ls),
(150,484,o),
(166,500,o),
(186,500,cs),
(314,500,ls),
(334,500,o),
(350,516,o),
(350,536,cs),
(350,564,ls),
(350,584,o),
(334,600,o),
(314,600,cs),
(86,600,ls),
(66,600,o),
(50,584,o),
(50,564,cs)
);
}
);
width = 375;
}
);
unicode = 67;
},
{
glyphname = D;
lastChange = "2024-01-15 12:25:52 +0000";
layers = (
{
layerId = m01;
shapes = (
{
closed = 1;
nodes = (
(50,20,ls),
(50,4,o),
(54,0,o),
(70,0,cs),
(314,0,ls),
(334,0,o),
(350,16,o),
(350,36,cs),
(350,564,ls),
(350,584,o),
(334,600,o),
(314,600,cs),
(70,600,ls),
(54,600,o),
(50,596,o),
(50,580,cs)
);
},
{
closed = 1;
nodes = (
(150,464,ls),
(150,484,o),
(166,500,o),
(186,500,cs),
(214,500,ls),
(234,500,o),
(250,484,o),
(250,464,cs),
(250,236,ls),
(250,216,o),
(234,200,o),
(214,200,cs),
(186,200,ls),
(166,200,o),
(150,216,o),
(150,236,cs)
);
}
);
width = 400;
}
);
unicode = 68;
},
{
glyphname = E;
lastChange = "2024-01-15 12:25:56 +0000";
layers = (
{
layerId = m01;
shapes = (
{
closed = 1;
nodes = (
(50,36,ls),
(50,16,o),
(66,0,o),
(86,0,cs),
(314,0,ls),
(334,0,o),
(350,16,o),
(350,36,cs),
(350,164,ls),
(350,184,o),
(334,200,o),
(314,200,cs),
(186,200,ls),
(166,200,o),
(150,216,o),
(150,236,cs),
(150,264,ls),
(150,284,o),
(166,300,o),
(186,300,cs),
(214,300,ls),
(234,300,o),
(250,316,o),
(250,336,cs),
(250,364,ls),
(250,384,o),
(234,400,o),
(214,400,cs),
(186,400,ls),
(166,400,o),
(150,416,o),
(150,436,cs),
(150,464,ls),
(150,484,o),
(166,500,o),
(186,500,cs),
(314,500,ls),
(334,500,o),
(350,516,o),
(350,536,cs),
(350,564,ls),
(350,584,o),
(334,600,o),
(314,600,cs),
(86,600,ls),
(66,600,o),
(50,584,o),
(50,564,cs)
);
}
);
width = 375;
}
);
unicode = 69;
},
{
glyphname = F;
kernRight = f;
lastChange = "2024-01-15 12:26:00 +0000";
layers = (
{
layerId = m01;
shapes = (
{
closed = 1;
nodes = (
(40,36,ls),
(40,16,o),
(56,0,o),
(76,0,cs),
(124,0,ls),
(144,0,o),
(161,16,o),
(160,36,cs),
(150,264,ls),
(149,284,o),
(166,300,o),
(186,300,cs),
(214,300,ls),
(234,300,o),
(250,316,o),
(250,336,cs),
(250,364,ls),
(250,384,o),
(234,400,o),
(214,400,cs),
(186,400,ls),
(166,400,o),
(150,416,o),
(150,436,cs),
(150,464,ls),
(150,484,o),
(166,500,o),
(186,500,cs),
(314,500,ls),
(334,500,o),
(350,516,o),
(350,536,cs),
(350,564,ls),
(350,584,o),
(334,600,o),
(314,600,cs),
(86,600,ls),
(66,600,o),
(50,584,o),
(50,564,cs)
);
}
);
width = 350;
}
);
unicode = 70;
},
{
glyphname = G;
lastChange = "2024-01-15 12:26:03 +0000";
layers = (
{
layerId = m01;
shapes = (
{
closed = 1;
nodes = (
(50,36,ls),
(50,16,o),
(66,0,o),
(86,0,cs),
(314,0,ls),
(334,0,o),
(350,16,o),
(350,36,cs),
(350,364,ls),
(350,384,o),
(334,400,o),
(314,400,cs),
(186,400,ls),
(166,400,o),
(150,416,o),
(150,436,cs),
(150,464,ls),
(150,484,o),
(166,500,o),
(186,500,cs),
(314,500,ls),
(334,500,o),
(350,516,o),
(350,536,cs),
(350,564,ls),
(350,584,o),
(334,600,o),
(314,600,cs),
(86,600,ls),
(66,600,o),
(50,584,o),
(50,564,cs)
);
},
{
closed = 1;
nodes = (
(150,264,ls),
(150,284,o),
(166,300,o),
(186,300,cs),
(214,300,ls),
(234,300,o),
(250,284,o),
(250,264,cs),
(250,236,ls),
(250,216,o),
(234,200,o),
(214,200,cs),
(186,200,ls),
(166,200,o),
(150,216,o),
(150,236,cs)
);
}
);
width = 400;
}
);
unicode = 71;
},
{
glyphname = H;
lastChange = "2024-01-15 12:26:13 +0000";
layers = (
{
layerId = m01;
shapes = (
{
closed = 1;
nodes = (
(40,36,ls),
(40,16,o),
(56,0,o),
(76,0,cs),
(124,0,ls),
(144,0,o),
(161,16,o),
(160,36,cs),
(150,264,ls),
(149,284,o),
(166,300,o),
(186,300,cs),
(214,300,ls),
(234,300,o),
(251,284,o),
(250,264,cs),
(240,36,ls),
(239,16,o),
(256,0,o),
(276,0,cs),
(324,0,ls),
(344,0,o),
(360,16,o),
(360,36,cs),
(350,564,ls),
(350,584,o),
(334,600,o),
(314,600,cs),
(286,600,ls),
(266,600,o),
(250,584,o),
(250,564,cs),
(250,436,ls),
(250,416,o),
(234,400,o),
(214,400,cs),
(186,400,ls),
(166,400,o),
(150,416,o),
(150,436,cs),
(150,564,ls),
(150,584,o),
(134,600,o),
(114,600,cs),
(86,600,ls),
(66,600,o),
(50,584,o),
(50,564,cs)
);
}
);
width = 400;
}
);
unicode = 72;
},
{
glyphname = I;
lastChange = "2024-01-15 12:26:15 +0000";
layers = (
{
layerId = m01;
shapes = (
{
closed = 1;
nodes = (
(40,36,ls),
(40,16,o),
(56,0,o),
(76,0,cs),
(124,0,ls),
(144,0,o),
(160,16,o),
(160,36,cs),
(150,564,ls),
(150,584,o),
(134,600,o),
(114,600,cs),
(86,600,ls),
(66,600,o),
(50,584,o),
(50,564,cs)
);
}
);
width = 200;
}
);
unicode = 73;
},
{
glyphname = J;
lastChange = "2024-01-15 12:26:18 +0000";
layers = (
{
layerId = m01;
shapes = (
{
closed = 1;
nodes = (
(150,225,ls),
(150,211,o),
(138,200,o),
(124,200,cs),
(75,200,ls),
(61,200,o),
(50,188,o),
(50,174,cs),
(50,25,ls),
(50,11,o),
(61,0,o),
(75,0,cs),
(225,0,ls),
(239,0,o),
(250,11,o),
(250,25,cs),
(250,575,ls),
(250,589,o),
(238,600,o),
(224,600,cs),
(175,600,ls),
(161,600,o),
(150,589,o),
(150,575,cs)
);
}
);
width = 300;
}
);
unicode = 74;
},
{
glyphname = K;
lastChange = "2024-01-15 12:26:21 +0000";
layers = (
{
layerId = m01;
shapes = (
{
closed = 1;
nodes = (
(40,36,ls),
(40,16,o),
(56,0,o),
(76,0,cs),
(114,0,ls),
(134,0,o),
(150,16,o),
(150,36,cs),
(150,64,ls),
(150,84,o),
(166,100,o),
(186,100,cs),
(214,100,ls),
(234,100,o),
(250,84,o),
(250,64,cs),
(250,36,ls),
(250,16,o),
(266,0,o),
(286,0,cs),
(324,0,ls),
(344,0,o),
(361,16,o),
(360,36,cs),
(350,264,ls),
(349,284,o),
(334,300,o),
(314,300,cs),
(186,300,ls),
(166,300,o),
(150,316,o),
(150,336,cs),
(150,364,ls),
(150,384,o),
(166,400,o),
(186,400,cs),
(314,400,ls),
(334,400,o),
(350,416,o),
(350,436,cs),
(350,564,ls),
(350,584,o),
(334,600,o),
(314,600,cs),
(286,600,ls),
(266,600,o),
(250,584,o),
(250,564,cs),
(250,536,ls),
(250,516,o),
(234,500,o),
(214,500,cs),
(186,500,ls),
(166,500,o),
(150,516,o),
(150,536,cs),
(150,564,ls),
(150,584,o),
(134,600,o),
(114,600,cs),
(86,600,ls),
(66,600,o),
(50,584,o),
(50,564,cs)
);
}
);
width = 400;
}
);
unicode = 75;
},
{
glyphname = L;
lastChange = "2024-01-15 12:26:25 +0000";
layers = (
{
layerId = m01;
shapes = (
{
closed = 1;
nodes = (
(150,236,ls),
(150,216,o),
(166,200,o),
(186,200,cs),
(314,200,ls),
(334,200,o),
(350,184,o),
(350,164,cs),
(350,36,ls),
(350,16,o),
(334,0,o),
(314,0,cs),
(86,0,ls),
(66,0,o),
(50,16,o),
(50,36,cs),
(50,564,ls),
(50,584,o),
(66,600,o),
(86,600,cs),
(114,600,ls),
(134,600,o),
(150,584,o),
(150,564,cs)
);
}
);
width = 370;
}
);
unicode = 76;
},
{
glyphname = M;
lastChange = "2024-01-15 12:26:28 +0000";
layers = (
{
layerId = m01;
shapes = (
{
closed = 1;
nodes = (
(40,36,ls),
(40,16,o),
(56,0,o),
(76,0,cs),
(124,0,ls),
(144,0,o),
(161,16,o),
(160,36,cs),
(150,364,ls),
(149,384,o),
(166,400,o),
(186,400,cs),
(214,400,ls),
(234,400,o),
(250,384,o),
(250,364,cs),
(250,236,ls),
(250,216,o),
(266,200,o),
(286,200,cs),
(314,200,ls),
(334,200,o),
(350,216,o),
(350,236,cs),
(350,364,ls),
(350,384,o),
(366,400,o),
(386,400,cs),
(414,400,ls),
(434,400,o),
(451,384,o),
(450,364,cs),
(440,36,ls),
(439,16,o),
(456,0,o),
(476,0,cs),
(524,0,ls),
(544,0,o),
(560,16,o),
(560,36,cs),
(550,564,ls),
(550,584,o),
(534,600,o),
(514,600,cs),
(386,600,ls),
(366,600,o),
(350,584,o),
(350,564,cs),
(350,536,ls),
(350,516,o),
(334,500,o),
(314,500,cs),
(286,500,ls),
(266,500,o),
(250,516,o),
(250,536,cs),
(250,564,ls),
(250,584,o),
(234,600,o),
(214,600,cs),
(86,600,ls),
(66,600,o),
(50,584,o),
(50,564,cs)
);
}
);
width = 600;
}
);
unicode = 77;
},
{
glyphname = N;
lastChange = "2024-01-15 12:26:31 +0000";
layers = (
{
layerId = m01;
shapes = (
{
closed = 1;
nodes = (
(40,36,ls),
(40,16,o),
(56,0,o),
(76,0,cs),
(124,0,ls),
(144,0,o),
(160,16,o),
(160,36,cs),
(150,464,ls),
(150,484,o),
(165,500,o),
(185,500,cs),
(205,500,o),
(220,484,o),
(220,464,cs),
(220,36,ls),
(220,16,o),
(236,0,o),
(256,0,cs),
(454,0,ls),
(474,0,o),
(490,16,o),
(490,36,cs),
(490,564,ls),
(490,584,o),
(474,600,o),
(454,600,cs),
(426,600,ls),
(406,600,o),
(390,584,o),
(390,564,cs),
(390,236,ls),
(390,216,o),
(375,200,o),
(355,200,cs),
(335,200,o),
(320,216,o),
(320,236,cs),
(320,564,ls),
(320,584,o),
(304,600,o),
(284,600,cs),
(86,600,ls),
(66,600,o),
(50,584,o),
(50,564,cs)
);
}
);
width = 540;
}
);
unicode = 78;
},
{
glyphname = O;
lastChange = "2024-01-15 12:26:34 +0000";
layers = (
{
layerId = m01;
shapes = (
{
closed = 1;
nodes = (
(50,36,ls),
(50,16,o),
(66,0,o),
(86,0,cs),
(314,0,ls),
(334,0,o),
(350,16,o),
(350,36,cs),
(350,564,ls),
(350,584,o),
(334,600,o),
(314,600,cs),
(86,600,ls),
(66,600,o),
(50,584,o),
(50,564,cs)
);
},
{
closed = 1;
nodes = (
(150,464,ls),
(150,484,o),
(166,500,o),
(186,500,cs),
(214,500,ls),
(234,500,o),
(250,484,o),
(250,464,cs),
(250,236,ls),
(250,216,o),
(234,200,o),
(214,200,cs),
(186,200,ls),
(166,200,o),
(150,216,o),
(150,236,cs)
);
}
);
width = 400;
}
);
unicode = 79;
},
{
glyphname = P;
lastChange = "2024-01-15 12:26:38 +0000";
layers = (
{
layerId = m01;
shapes = (
{
closed = 1;
nodes = (
(40,36,ls),
(40,16,o),
(56,0,o),
(76,0,cs),
(124,0,ls),
(144,0,o),
(161,16,o),
(160,36,cs),
(150,264,ls),
(149,284,o),
(166,300,o),
(186,300,cs),
(314,300,ls),
(334,300,o),
(350,316,o),
(350,336,cs),
(350,564,ls),
(350,584,o),
(334,600,o),
(314,600,cs),
(86,600,ls),
(66,600,o),
(50,584,o),
(50,564,cs)
);
},
{
closed = 1;
nodes = (
(150,464,ls),
(150,484,o),
(166,500,o),
(186,500,cs),
(214,500,ls),
(234,500,o),
(250,484,o),
(250,464,cs),
(250,436,ls),
(250,416,o),
(234,400,o),
(214,400,cs),
(186,400,ls),
(166,400,o),
(150,416,o),
(150,436,cs)
);
}
);
width = 400;
}
);
unicode = 80;
},
{
glyphname = Q;
lastChange = "2024-01-15 12:26:40 +0000";
layers = (
{
layerId = m01;
shapes = (
{
closed = 1;
nodes = (
(40,16,ls),
(40,-4,o),
(56,-22,o),
(76,-20,cs),
(314,0,ls),
(334,2,o),
(357,-17,o),
(350,-36,cs),
(340,-64,ls),
(333,-83,o),
(356,-100,o),
(376,-100,cs),
(424,-100,ls),
(444,-100,o),
(462,-84,o),
(460,-64,cs),
(450,64,ls),
(448,84,o),
(434,100,o),
(414,100,cs),
(386,100,ls),
(366,100,o),
(350,116,o),
(350,136,cs),
(350,464,ls),
(350,484,o),
(334,500,o),
(314,500,cs),
(86,500,ls),
(66,500,o),
(50,484,o),
(50,464,cs)
);
},
{
closed = 1;
nodes = (
(150,364,ls),
(150,384,o),
(166,400,o),
(186,400,cs),
(214,400,ls),
(234,400,o),
(250,384,o),
(250,364,cs),
(250,136,ls),
(250,116,o),
(234,100,o),
(214,100,cs),
(186,100,ls),
(166,100,o),
(150,116,o),
(150,136,cs)
);
}
);
width = 460;
}
);
unicode = 81;
},
{
glyphname = R;
lastChange = "2024-01-15 12:26:46 +0000";
layers = (
{
layerId = m01;
shapes = (
{
closed = 1;
nodes = (
(40,36,ls),
(40,16,o),
(56,0,o),
(76,0,cs),
(124,0,ls),
(144,0,o),
(161,16,o),
(160,36,cs),
(150,264,ls),
(149,284,o),
(166,300,o),
(186,300,cs),
(314,300,ls),
(334,300,o),
(351,284,o),
(350,264,cs),
(340,36,ls),
(339,16,o),
(356,0,o),
(376,0,cs),
(424,0,ls),
(444,0,o),
(461,16,o),
(460,36,cs),
(450,364,ls),
(449,384,o),
(434,400,o),
(414,400,cs),
(386,400,ls),
(366,400,o),
(350,416,o),
(350,436,cs),
(350,564,ls),
(350,584,o),
(334,600,o),
(314,600,cs),
(86,600,ls),
(66,600,o),
(50,584,o),
(50,564,cs)
);
},
{
closed = 1;
nodes = (
(150,464,ls),
(150,484,o),
(166,500,o),
(186,500,cs),
(214,500,ls),
(234,500,o),
(250,484,o),
(250,464,cs),
(250,436,ls),
(250,416,o),
(234,400,o),
(214,400,cs),
(186,400,ls),
(166,400,o),
(150,416,o),
(150,436,cs)
);
}
);
width = 500;
}
);
unicode = 82;
},
{
glyphname = S;
lastChange = "2024-01-15 12:26:50 +0000";
layers = (
{
layerId = m01;
shapes = (
{
closed = 1;
nodes = (
(50,36,ls),
(50,16,o),
(66,0,o),
(86,0,cs),
(314,0,ls),
(334,0,o),
(350,16,o),
(350,36,cs),
(350,364,ls),
(350,384,o),
(334,400,o),
(314,400,cs),
(186,400,ls),
(166,400,o),
(150,416,o),
(150,436,cs),
(150,464,ls),
(150,484,o),
(166,500,o),
(186,500,cs),
(314,500,ls),
(334,500,o),
(350,516,o),
(350,536,cs),
(350,564,ls),
(350,584,o),
(334,600,o),
(314,600,cs),
(86,600,ls),
(66,600,o),
(50,584,o),
(50,564,cs),
(50,336,ls),
(50,316,o),
(66,300,o),
(86,300,cs),
(214,300,ls),
(234,300,o),
(250,284,o),
(250,264,cs),
(250,236,ls),
(250,216,o),
(234,200,o),
(214,200,cs),
(86,200,ls),
(66,200,o),
(50,184,o),
(50,164,cs)
);
}
);
width = 400;
}
);
unicode = 83;
},
{
glyphname = T;
lastChange = "2024-01-15 12:26:53 +0000";
layers = (
{
layerId = m01;
shapes = (
{
closed = 1;
nodes = (
(46,600,ls),
(26,600,o),
(10,584,o),
(10,564,cs),
(10,536,ls),
(10,516,o),
(26,500,o),
(46,500,cs),
(74,500,ls),
(94,500,o),
(110,484,o),
(110,464,cs),
(100,36,ls),
(100,16,o),
(116,0,o),
(136,0,cs),
(184,0,ls),
(204,0,o),
(220,16,o),
(220,36,cs),
(210,464,ls),
(210,484,o),
(226,500,o),
(246,500,cs),
(274,500,ls),
(294,500,o),
(310,516,o),
(310,536,cs),
(310,564,ls),
(310,584,o),
(294,600,o),
(274,600,cs)
);
}
);
width = 320;
}
);
unicode = 84;
},
{
glyphname = U;
lastChange = "2024-01-15 12:27:01 +0000";
layers = (
{
layerId = m01;
shapes = (
{
closed = 1;
nodes = (
(50,37,ls),
(50,17,o),
(66,1,o),
(86,1,cs),
(314,1,ls),
(334,1,o),
(350,17,o),
(350,37,cs),
(350,565,ls),
(350,585,o),
(334,601,o),
(314,601,cs),
(286,601,ls),
(266,601,o),
(250,585,o),
(250,565,cs),
(250,237,ls),
(250,217,o),
(234,201,o),
(214,201,cs),
(186,201,ls),
(166,201,o),
(150,217,o),
(150,237,cs),
(150,565,ls),
(150,585,o),
(134,601,o),
(114,601,cs),
(86,601,ls),
(66,601,o),
(50,585,o),
(50,565,cs)
);
}
);
width = 400;
}
);
unicode = 85;
},
{
glyphname = V;
lastChange = "2024-01-15 12:27:03 +0000";
layers = (
{
layerId = m01;
shapes = (
{
closed = 1;
nodes = (
(60,36,ls),
(61,16,o),
(76,0,o),
(96,0,cs),
(304,0,ls),
(324,0,o),
(339,16,o),
(340,36,cs),
(360,564,ls),
(361,584,o),
(344,600,o),
(324,600,cs),
(296,600,ls),
(276,600,o),
(261,584,o),
(260,564,cs),
(240,236,ls),
(239,216,o),
(224,200,o),
(204,200,cs),
(196,200,ls),
(176,200,o),
(161,216,o),
(160,236,cs),
(140,564,ls),
(139,584,o),
(124,600,o),
(104,600,cs),
(76,600,ls),
(56,600,o),
(39,584,o),
(40,564,cs)
);
}
);
width = 400;
}
);
unicode = 86;
},
{
glyphname = W;
lastChange = "2024-01-15 12:27:08 +0000";
layers = (
{
layerId = m01;
shapes = (
{
closed = 1;
nodes = (
(550,564,ls),
(550,584,o),
(534,600,o),
(514,600,cs),
(486,600,ls),
(466,600,o),
(450,584,o),
(450,564,cs),
(450,336,ls),
(450,316,o),
(434,300,o),
(414,300,cs),
(386,300,ls),
(366,300,o),
(350,316,o),
(350,336,cs),
(350,464,ls),
(350,484,o),
(334,500,o),
(314,500,cs),
(286,500,ls),
(266,500,o),
(250,484,o),
(250,464,cs),
(250,336,ls),
(250,316,o),
(234,300,o),
(214,300,cs),
(186,300,ls),
(166,300,o),
(150,316,o),
(150,336,cs),
(150,564,ls),
(150,584,o),
(134,600,o),
(114,600,cs),
(86,600,ls),
(66,600,o),
(50,584,o),
(50,564,cs),
(50,25,ls),
(50,11,o),
(62,0,o),
(76,0,cs),
(214,0,ls),
(234,0,o),
(250,16,o),
(250,36,cs),
(250,164,ls),
(250,184,o),
(266,200,o),
(286,200,cs),
(314,200,ls),
(334,200,o),
(350,184,o),
(350,164,cs),
(350,36,ls),
(350,16,o),
(366,0,o),
(386,0,cs),
(525,0,ls),
(539,0,o),
(550,11,o),
(550,25,cs)
);
}
);
width = 600;
}
);
unicode = 87;
},
{
glyphname = X;
lastChange = "2024-01-15 12:27:11 +0000";
layers = (
{
layerId = m01;
shapes = (
{
closed = 1;
nodes = (
(50,436,ls),
(50,416,o),
(66,400,o),
(86,400,cs),
(114,400,ls),
(134,400,o),
(150,384,o),
(150,364,cs),
(150,336,ls),
(150,316,o),
(134,300,o),
(114,300,cs),
(86,300,ls),
(66,300,o),
(50,284,o),
(50,264,cs),
(50,36,ls),
(50,16,o),
(66,0,o),
(86,0,cs),
(114,0,ls),
(134,0,o),
(150,16,o),
(150,36,cs),
(150,164,ls),
(150,184,o),
(166,200,o),
(186,200,cs),
(214,200,ls),
(234,200,o),
(250,184,o),
(250,164,cs),
(250,36,ls),
(250,16,o),
(266,0,o),
(286,0,cs),
(314,0,ls),
(334,0,o),
(350,16,o),
(350,36,cs),
(350,264,ls),
(350,284,o),
(334,300,o),
(314,300,cs),
(286,300,ls),
(266,300,o),
(250,316,o),
(250,336,cs),
(250,364,ls),
(250,384,o),
(266,400,o),
(286,400,cs),
(314,400,ls),
(334,400,o),
(350,416,o),
(350,436,cs),
(350,564,ls),
(350,584,o),
(334,600,o),
(314,600,cs),
(286,600,ls),
(266,600,o),
(250,584,o),
(250,564,cs),
(250,536,ls),
(250,516,o),
(234,500,o),
(214,500,cs),
(186,500,ls),
(166,500,o),
(150,516,o),
(150,536,cs),
(150,564,ls),
(150,584,o),
(134,600,o),
(114,600,cs),
(86,600,ls),
(66,600,o),
(50,584,o),
(50,564,cs)
);
}
);
width = 400;
}
);
unicode = 88;
},
{
glyphname = Y;
kernLeft = Y;
kernRight = Y;
lastChange = "2024-01-15 12:35:35 +0000";
layers = (
{
layerId = m01;
shapes = (
{
closed = 1;
nodes = (
(20,386,ls),
(20,366,o),
(36,350,o),
(56,350,cs),
(84,350,ls),
(104,350,o),
(121,334,o),
(120,314,cs),
(110,36,ls),
(109,16,o),
(126,0,o),
(146,0,cs),
(194,0,ls),
(214,0,o),
(231,16,o),
(230,36,cs),
(220,314,ls),
(219,334,o),
(236,350,o),
(256,350,cs),
(284,350,ls),
(304,350,o),
(320,366,o),
(320,386,cs),
(320,564,ls),
(320,584,o),
(304,600,o),
(284,600,cs),
(256,600,ls),
(236,600,o),
(220,584,o),
(220,564,cs),
(220,536,ls),
(220,516,o),
(204,500,o),
(184,500,cs),
(156,500,ls),
(136,500,o),
(120,516,o),
(120,536,cs),
(120,564,ls),
(120,584,o),
(104,600,o),
(84,600,cs),
(56,600,ls),
(36,600,o),
(20,584,o),
(20,564,cs)
);
}
);
width = 340;
}
);
unicode = 89;
},
{
glyphname = Z;
lastChange = "2024-01-15 12:27:14 +0000";
layers = (
{
layerId = m01;
shapes = (
{
closed = 1;
nodes = (
(350,36,ls),
(350,16,o),
(334,0,o),
(314,0,cs),
(86,0,ls),
(66,0,o),
(50,16,o),
(50,36,cs),
(50,364,ls),
(50,384,o),
(66,400,o),
(86,400,cs),
(214,400,ls),
(234,400,o),
(250,416,o),
(250,436,cs),
(250,464,ls),
(250,484,o),
(234,500,o),
(214,500,cs),
(86,500,ls),
(66,500,o),
(50,516,o),
(50,536,cs),
(50,564,ls),
(50,584,o),
(66,600,o),
(86,600,cs),
(314,600,ls),
(334,600,o),
(350,584,o),
(350,564,cs),
(350,336,ls),
(350,316,o),
(334,300,o),
(314,300,cs),
(186,300,ls),
(166,300,o),
(150,284,o),
(150,264,cs),
(150,236,ls),
(150,216,o),
(166,200,o),
(186,200,cs),
(314,200,ls),
(334,200,o),
(350,184,o),
(350,164,cs)
);
}
);
width = 400;
}
);
unicode = 90;
},
{
glyphname = a;
lastChange = "2024-01-15 12:23:45 +0000";
layers = (
{
layerId = m01;
shapes = (
{
closed = 1;
nodes = (
(414,0,ls),
(434,0,o),
(450,16,o),
(450,36,cs),
(450,164,ls),
(450,184,o),
(434,200,o),
(414,200,cs),
(386,200,ls),
(366,200,o),
(350,216,o),
(350,236,cs),
(350,364,ls),
(350,384,o),
(334,400,o),
(314,400,cs),
(86,400,ls),
(66,400,o),
(50,384,o),
(50,364,cs),
(50,36,ls),
(50,16,o),
(66,0,o),
(86,0,cs)
);
},
{
closed = 1;
nodes = (
(150,264,ls),
(150,284,o),
(166,300,o),
(186,300,cs),
(214,300,ls),
(234,300,o),
(250,284,o),
(250,264,cs),
(250,236,ls),
(250,216,o),
(234,200,o),
(214,200,cs),
(186,200,ls),
(166,200,o),
(150,216,o),
(150,236,cs)
);
}
);
width = 475;
}
);
unicode = 97;
},
{
glyphname = b;
lastChange = "2024-01-15 12:38:17 +0000";
layers = (
{
layerId = m01;
shapes = (
{
closed = 1;
nodes = (
(50,36,ls),
(50,16,o),
(66,0,o),
(86,0,cs),
(314,0,ls),
(334,0,o),
(350,16,o),
(350,36,cs),
(350,364,ls),
(350,384,o),
(334,400,o),
(314,400,cs),
(186,400,ls),
(166,400,o),
(150,416,o),
(150,436,cs),
(150,464,ls),
(150,484,o),
(134,500,o),
(114,500,cs),
(86,500,ls),
(66,500,o),
(50,484,o),
(50,464,cs)
);
},
{
closed = 1;
nodes = (
(150,264,ls),
(150,284,o),
(166,300,o),
(186,300,cs),
(214,300,ls),
(234,300,o),
(250,284,o),
(250,264,cs),
(250,236,ls),
(250,216,o),
(234,200,o),
(214,200,cs),
(186,200,ls),
(166,200,o),
(150,216,o),
(150,236,cs)
);
}
);
width = 400;
}
);
unicode = 98;
},
{
glyphname = c;
lastChange = "2024-01-15 12:23:58 +0000";
layers = (
{
layerId = m01;
shapes = (
{
closed = 1;
nodes = (
(50,36,ls),
(50,16,o),
(66,0,o),
(86,0,cs),
(314,0,ls),
(334,0,o),
(350,16,o),
(350,36,cs),
(350,164,ls),
(350,184,o),
(334,200,o),
(314,200,cs),
(186,200,ls),
(166,200,o),
(150,216,o),
(150,236,cs),
(150,264,ls),
(150,284,o),
(166,300,o),
(186,300,cs),
(314,300,ls),
(334,300,o),
(350,316,o),
(350,336,cs),
(350,364,ls),
(350,384,o),
(334,400,o),
(314,400,cs),
(86,400,ls),
(66,400,o),
(50,384,o),
(50,364,cs)
);
}
);
width = 400;
}
);
unicode = 99;
},
{
glyphname = d;
lastChange = "2024-01-15 12:24:00 +0000";
layers = (
{
layerId = m01;
shapes = (
{
closed = 1;
nodes = (
(350,36,ls),
(350,16,o),
(334,0,o),
(314,0,cs),
(86,0,ls),
(66,0,o),
(50,16,o),
(50,36,cs),
(50,364,ls),
(50,384,o),
(66,400,o),
(86,400,cs),
(214,400,ls),
(234,400,o),
(250,416,o),
(250,436,cs),
(250,564,ls),
(250,584,o),
(266,600,o),
(286,600,cs),
(314,600,ls),
(334,600,o),
(350,584,o),
(350,564,cs)
);
},
{
closed = 1;
nodes = (
(214,200,ls),
(234,200,o),
(250,216,o),
(250,236,cs),
(250,264,ls),
(250,284,o),
(234,300,o),
(214,300,cs),
(186,300,ls),
(166,300,o),
(150,284,o),
(150,264,cs),
(150,236,ls),
(150,216,o),
(166,200,o),
(186,200,cs)
);
}
);
width = 400;
}
);
unicode = 100;
},
{
glyphname = e;
lastChange = "2024-01-15 12:39:38 +0000";
layers = (
{
layerId = m01;
shapes = (
{
closed = 1;
nodes = (
(304,0,ls),
(324,0,o),
(340,16,o),
(340,36,cs),
(340,63,o),
(309,55,o),
(278,91,cs),
(244,131,o),
(350,91,o),
(350,136,cs),
(350,364,ls),
(350,384,o),
(334,400,o),
(314,400,cs),
(86,400,ls),
(66,400,o),
(50,384,o),
(50,364,cs),
(50,36,ls),
(50,16,o),
(66,0,o),
(86,0,cs)
);
},
{
closed = 1;
nodes = (
(166,200,o),
(150,216,o),
(150,236,cs),
(150,264,ls),
(150,284,o),
(166,300,o),
(186,300,cs),
(214,300,ls),
(234,300,o),
(250,284,o),
(250,264,cs),
(250,236,ls),
(250,216,o),
(234,200,o),
(214,200,cs),
(186,200,ls)
);
}
);
width = 400;
}
);
unicode = 101;
},
{
glyphname = f;
kernLeft = f;
kernRight = f;
lastChange = "2024-01-15 12:39:14 +0000";
layers = (
{
layerId = m01;
shapes = (
{
closed = 1;
nodes = (
(40,36,ls),
(39,16,o),
(56,0,o),
(76,0,cs),
(124,0,ls),
(144,0,o),
(165,16,o),
(160,36,cs),
(150,74,ls),
(145,94,o),
(166,110,o),
(186,110,cs),
(214,110,ls),
(234,110,o),
(250,126,o),
(250,146,cs),
(250,174,ls),
(250,194,o),
(234,210,o),
(214,210,cs),
(186,210,ls),
(166,210,o),
(150,226,o),
(150,246,cs),
(150,254,ls),
(150,274,o),
(166,290,o),
(186,290,cs),
(294,290,ls),
(314,290,o),
(330,306,o),
(330,326,cs),
(330,364,ls),
(330,384,o),
(314,400,o),
(294,400,cs),
(86,400,ls),
(66,400,o),
(51,384,o),
(50,364,cs)
);
}
);
width = 340;
}
);
unicode = 102;
},
{
glyphname = g;
lastChange = "2024-01-15 12:40:09 +0000";
layers = (
{
layerId = m01;
shapes = (
{
closed = 1;
nodes = (
(96,0,ls),
(76,0,o),
(60,16,o),
(60,36,cs),
(60,63,o),
(91,55,o),
(122,91,cs),
(156,131,o),
(50,91,o),
(50,136,cs),
(50,364,ls),
(50,384,o),
(66,400,o),
(86,400,cs),
(314,400,ls),
(334,400,o),
(350,384,o),
(350,364,cs),
(350,36,ls),
(350,16,o),
(334,0,o),
(314,0,cs)
);
},
{
closed = 1;
nodes = (
(234,200,o),
(250,216,o),
(250,236,cs),
(250,264,ls),
(250,284,o),
(234,300,o),
(214,300,cs),
(186,300,ls),
(166,300,o),
(150,284,o),
(150,264,cs),
(150,236,ls),
(150,216,o),
(166,200,o),
(186,200,cs),
(214,200,ls)
);
}
);
width = 400;
}
);
unicode = 103;
},
{
glyphname = h;
lastChange = "2024-01-15 12:41:11 +0000";
layers = (
{
layerId = m01;
shapes = (
{
closed = 1;
nodes = (
(40,36,ls),
(40,16,o),
(56,0,o),
(76,0,cs),
(124,0,ls),
(144,0,o),
(161,16,o),
(160,36,cs),
(150,264,ls),
(149,284,o),
(166,300,o),
(186,300,cs),
(214,300,ls),
(234,300,o),
(251,284,o),
(250,264,cs),
(240,36,ls),
(239,16,o),
(256,0,o),
(276,0,cs),
(324,0,ls),
(344,0,o),
(361,16,o),
(360,36,cs),
(350,364,ls),
(349,384,o),
(334,400,o),
(314,400,cs),
(186,400,ls),
(166,400,o),
(150,416,o),
(150,436,cs),
(150,564,ls),
(150,584,o),
(134,600,o),
(114,600,cs),
(86,600,ls),
(66,600,o),
(50,584,o),
(50,564,cs)
);
}
);
width = 400;
}
);
unicode = 104;
},
{
glyphname = i;
lastChange = "2024-01-15 12:24:21 +0000";
layers = (
{
layerId = m01;
shapes = (
{
closed = 1;
nodes = (
(40,36,ls),
(39,16,o),
(56,0,o),
(76,0,cs),
(124,0,ls),
(144,0,o),
(161,16,o),
(160,36,cs),
(150,364,ls),
(149,384,o),
(134,400,o),
(114,400,cs),
(86,400,ls),
(66,400,o),
(51,384,o),
(50,364,cs)
);
},
{
closed = 1;
nodes = (
(50,486,ls),
(50,466,o),
(66,450,o),
(86,450,cs),
(114,450,ls),
(134,450,o),
(150,466,o),
(150,486,cs),
(150,514,ls),
(150,534,o),
(134,550,o),
(114,550,cs),
(86,550,ls),
(66,550,o),
(50,534,o),
(50,514,cs)
);
}
);
width = 200;
}
);
unicode = 105;
},
{
glyphname = j;
lastChange = "2024-01-15 12:24:18 +0000";
layers = (
{
layerId = m01;
shapes = (
{
closed = 1;
nodes = (
(149,236,ls),
(149,216,o),
(133,200,o),
(113,200,cs),
(86,200,ls),
(66,200,o),
(50,184,o),
(50,164,cs),
(50,36,ls),
(50,16,o),
(66,0,o),
(86,0,cs),
(213,0,ls),
(233,0,o),
(249,16,o),
(249,36,cs),
(249,364,ls),
(249,384,o),
(233,400,o),
(213,400,cs),
(185,400,ls),
(165,400,o),
(149,384,o),
(149,364,cs)
);
},
{
closed = 1;
nodes = (
(213,450,ls),
(233,450,o),
(249,466,o),
(249,486,cs),
(249,514,ls),
(249,534,o),
(233,550,o),
(213,550,cs),
(185,550,ls),
(165,550,o),
(149,534,o),
(149,514,cs),
(149,486,ls),
(149,466,o),
(165,450,o),
(185,450,cs)
);
}
);
width = 299;
}
);
unicode = 106;
},
{
glyphname = k;
lastChange = "2024-01-15 12:41:45 +0000";
layers = (
{
layerId = m01;
shapes = (
{
closed = 1;
nodes = (
(40,36,ls),
(40,16,o),
(56,0,o),
(76,0,cs),
(124,0,ls),
(144,0,o),
(162,16,o),
(160,36,cs),
(150,154,ls),
(148,174,o),
(166,190,o),
(186,190,cs),
(214,190,ls),
(234,190,o),
(252,174,o),
(250,154,cs),
(240,36,ls),
(238,16,o),
(256,0,o),
(276,0,cs),
(324,0,ls),
(344,0,o),
(361,16,o),
(360,36,cs),
(350,264,ls),
(349,284,o),
(337,300,o),
(320,300,cs),
(303,300,o),
(285,316,o),
(290,336,cs),
(300,374,ls),
(305,394,o),
(284,410,o),
(264,410,cs),
(236,410,ls),
(216,410,o),
(205,394,o),
(200,374,cs),
(190,336,ls),
(185,316,o),
(181,310,o),
(170,310,cs),
(159,310,o),
(150,316,o),
(150,336,cs),
(150,564,ls),
(150,584,o),
(134,600,o),
(114,600,cs),
(86,600,ls),
(66,600,o),
(50,584,o),
(50,564,cs)
);
}
);
width = 400;
}
);
unicode = 107;
},
{
glyphname = l;
lastChange = "2024-01-15 12:24:29 +0000";
layers = (
{
layerId = m01;
shapes = (
{
closed = 1;
nodes = (
(151,236,ls),
(151,216,o),
(167,200,o),
(187,200,cs),
(214,200,ls),
(234,200,o),
(250,184,o),
(250,164,cs),
(250,35,ls),
(250,15,o),
(234,-1,o),
(214,-1,cs),
(86,-1,ls),
(66,-1,o),
(50,15,o),
(50,35,cs),
(50,564,ls),
(50,584,o),
(66,600,o),
(86,600,cs),
(115,600,ls),
(135,600,o),
(151,584,o),
(151,564,cs)
);
}
);
width = 265;
}
);
unicode = 108;
},
{
glyphname = m;
lastChange = "2024-01-15 12:42:45 +0000";
layers = (
{
layerId = m01;
shapes = (
{
closed = 1;
nodes = (
(40,36,ls),
(39,16,o),
(56,0,o),
(76,0,cs),
(124,0,ls),
(144,0,o),
(161,16,o),
(160,36,cs),
(150,264,ls),
(149,284,o),
(166,300,o),
(186,300,cs),
(214,300,ls),
(234,300,o),
(251,284,o),
(250,264,cs),
(240,36,ls),
(239,16,o),
(256,0,o),
(276,0,cs),
(324,0,ls),
(344,0,o),
(361,16,o),
(360,36,cs),
(350,264,ls),
(349,284,o),
(366,300,o),
(386,300,cs),
(414,300,ls),
(434,300,o),
(451,284,o),
(450,264,cs),
(440,36,ls),
(439,16,o),
(456,0,o),
(476,0,cs),
(524,0,ls),
(544,0,o),
(561,16,o),
(560,36,cs),
(550,372,ls),
(549,392,o),
(534,408,o),
(514,408,cs),
(186,408,ls),
(166,408,o),
(150,394,o),
(150,414,cs),
(150,420,ls),
(150,440,o),
(134,436,o),
(114,436,cs),
(86,436,ls),
(66,436,o),
(51,440,o),
(50,420,cs)
);
}
);
width = 600;
}
);
unicode = 109;
},
{
glyphname = n;
lastChange = "2024-01-15 12:40:54 +0000";
layers = (
{
layerId = m01;
shapes = (
{
closed = 1;
nodes = (
(40,36,ls),
(39,16,o),
(56,0,o),
(76,0,cs),
(124,0,ls),
(144,0,o),
(161,16,o),
(160,36,cs),
(150,264,ls),
(149,284,o),
(166,300,o),
(186,300,cs),
(214,300,ls),
(234,300,o),
(251,284,o),
(250,264,cs),
(240,36,ls),
(239,16,o),
(256,0,o),
(276,0,cs),
(324,0,ls),
(344,0,o),
(361,16,o),
(360,36,cs),
(350,364,ls),
(349,384,o),
(334,400,o),
(314,400,cs),
(186,400,ls),
(166,400,o),
(150,376,o),
(150,396,cs),
(150,404,ls),
(150,424,o),
(134,420,o),
(114,420,cs),
(86,420,ls),
(66,420,o),
(51,424,o),
(50,404,cs)
);
}
);
width = 400;
}
);
unicode = 110;
},
{
glyphname = o;
lastChange = "2024-01-15 12:24:40 +0000";
layers = (
{
layerId = m01;
shapes = (
{
closed = 1;
nodes = (
(50,36,ls),
(50,16,o),
(66,0,o),
(86,0,cs),
(314,0,ls),
(334,0,o),
(350,16,o),
(350,36,cs),
(350,364,ls),
(350,384,o),
(334,400,o),
(314,400,cs),
(86,400,ls),
(66,400,o),
(50,384,o),
(50,364,cs)
);
},
{
closed = 1;
nodes = (
(150,264,ls),
(150,284,o),
(166,300,o),
(186,300,cs),
(214,300,ls),
(234,300,o),
(250,284,o),
(250,264,cs),
(250,236,ls),
(250,216,o),
(234,200,o),
(214,200,cs),
(186,200,ls),
(166,200,o),
(150,216,o),
(150,236,cs)
);
}
);
width = 400;
}
);
unicode = 111;
},
{
glyphname = p;
lastChange = "2024-01-15 12:24:43 +0000";
layers = (
{
layerId = m01;
shapes = (
{
closed = 1;
nodes = (
(40,36,ls),
(39,16,o),
(56,0,o),
(76,0,cs),
(124,0,ls),
(144,0,o),
(167,17,o),
(160,36,cs),
(150,64,ls),
(143,83,o),
(166,100,o),
(186,100,cs),
(314,100,ls),
(334,100,o),
(350,116,o),
(350,136,cs),
(350,364,ls),
(350,384,o),
(334,400,o),
(314,400,cs),
(86,400,ls),
(66,400,o),
(51,384,o),
(50,364,cs)
);
},
{
closed = 1;
nodes = (
(150,264,ls),
(150,284,o),
(166,300,o),
(186,300,cs),
(214,300,ls),
(234,300,o),
(250,284,o),
(250,264,cs),
(250,236,ls),
(250,216,o),
(234,200,o),
(214,200,cs),
(186,200,ls),
(166,200,o),
(150,216,o),
(150,236,cs)
);
}
);
width = 400;
}
);
unicode = 112;
},
{
glyphname = q;
lastChange = "2024-01-15 12:24:53 +0000";
layers = (
{
layerId = m01;
shapes = (
{
closed = 1;
nodes = (
(361,36,ls),
(362,16,o),
(345,0,o),
(325,0,cs),
(277,0,ls),
(257,0,o),
(234,17,o),
(241,36,cs),
(251,64,ls),
(258,83,o),
(235,100,o),
(215,100,cs),
(86,100,ls),
(66,100,o),
(50,116,o),
(50,136,cs),
(50,364,ls),
(50,384,o),
(66,400,o),
(86,400,cs),
(315,400,ls),
(335,400,o),
(350,384,o),
(351,364,cs)
);
},
{
closed = 1;
nodes = (
(215,200,ls),
(235,200,o),
(251,216,o),
(251,236,cs),
(251,264,ls),
(251,284,o),
(235,300,o),
(215,300,cs),
(186,300,ls),
(166,300,o),
(150,284,o),
(150,264,cs),
(150,236,ls),
(150,216,o),
(166,200,o),
(186,200,cs)
);
}
);
width = 401;
}
);
unicode = 113;
},
{
glyphname = r;
lastChange = "2024-01-15 12:36:45 +0000";
layers = (
{
layerId = m01;
shapes = (
{
closed = 1;
nodes = (
(40,36,ls),
(39,16,o),
(56,0,o),
(76,0,cs),
(124,0,ls),
(144,0,o),
(161,16,o),
(160,36,cs),
(150,264,ls),
(149,284,o),
(166,300,o),
(186,300,cs),
(214,300,ls),
(234,300,o),
(250,284,o),
(250,264,cs),
(250,236,ls),
(250,216,o),
(266,200,o),
(286,200,cs),
(314,200,ls),
(334,200,o),
(350,216,o),
(350,236,cs),
(350,364,ls),
(350,384,o),
(334,400,o),
(314,400,cs),
(86,400,ls),
(66,400,o),
(51,384,o),
(50,364,cs)
);
}
);
width = 400;
}
);
unicode = 114;
},
{
glyphname = s;
lastChange = "2024-01-15 12:38:47 +0000";
layers = (
{
layerId = m01;
shapes = (
{
closed = 1;
nodes = (
(50,36,ls),
(50,16,o),
(66,0,o),
(86,0,cs),
(254,0,ls),
(274,0,o),
(290,16,o),
(290,36,cs),
(290,204,ls),
(290,224,o),
(274,240,o),
(254,240,cs),
(176,240,ls),
(156,240,o),
(140,256,o),
(140,276,cs),
(140,284,ls),
(140,304,o),
(156,320,o),
(176,320,cs),
(254,320,ls),
(274,320,o),
(290,336,o),
(290,356,cs),
(290,364,ls),
(290,384,o),
(274,400,o),
(254,400,cs),
(86,400,ls),
(66,400,o),
(50,384,o),
(50,364,cs),
(50,196,ls),
(50,176,o),
(66,160,o),
(86,160,cs),
(164,160,ls),
(184,160,o),
(200,144,o),
(200,124,cs),
(200,116,ls),
(200,96,o),
(184,80,o),
(164,80,cs),
(86,80,ls),
(66,80,o),
(50,64,o),
(50,44,cs)
);
}
);
width = 340;
}
);
unicode = 115;
},
{
glyphname = t;
lastChange = "2024-01-15 12:25:08 +0000";
layers = (
{
layerId = m01;
shapes = (
{
closed = 1;
nodes = (
(214,0,ls),
(234,0,o),
(250,16,o),
(250,36,cs),
(250,164,ls),
(250,184,o),
(234,200,o),
(214,200,cs),
(187,200,ls),
(167,200,o),
(151,216,o),
(151,236,cs),
(151,305,ls),
(151,325,o),
(167,341,o),
(187,341,cs),
(214,341,ls),
(234,341,o),
(250,357,o),
(250,377,cs),
(250,405,ls),
(250,425,o),
(234,441,o),
(214,441,cs),
(187,441,ls),
(167,441,o),
(151,457,o),
(151,477,cs),
(151,514,ls),
(151,534,o),
(135,550,o),
(115,550,cs),
(86,550,ls),
(66,550,o),
(50,534,o),
(50,514,cs),
(50,36,ls),
(50,16,o),
(66,0,o),
(86,0,cs)
);
}
);
width = 280;
}
);
unicode = 116;
},
{
glyphname = u;
lastChange = "2024-01-15 12:25:12 +0000";
layers = (
{
layerId = m01;
shapes = (
{
closed = 1;
nodes = (
(386,401,ls),
(386,421,o),
(370,437,o),
(350,437,cs),
(310,437,ls),
(290,437,o),
(274,421,o),
(274,401,cs),
(274,248,ls),
(274,228,o),
(258,212,o),
(238,212,cs),
(198,212,ls),
(178,212,o),
(162,228,o),
(162,248,cs),
(162,288,ls),
(162,308,o),
(146,324,o),
(126,324,cs),
(86,324,ls),
(66,324,o),
(50,308,o),
(50,288,cs),
(50,36,ls),
(50,16,o),
(66,0,o),
(86,0,cs),
(350,0,ls),
(370,0,o),
(386,16,o),
(386,36,cs)
);
}
);
width = 436;
}
);
unicode = 117;
},
{
glyphname = v;
lastChange = "2024-01-15 12:25:15 +0000";
layers = (
{
layerId = m01;
shapes = (
{
closed = 1;
nodes = (
(386,363,ls),
(386,383,o),
(370,399,o),
(350,399,cs),
(310,399,ls),
(290,399,o),
(274,383,o),
(274,363,cs),
(274,248,ls),
(274,228,o),
(258,212,o),
(238,212,cs),
(198,212,ls),
(178,212,o),
(162,232,o),
(162,252,cs),
(162,364,ls),
(162,384,o),
(146,400,o),
(126,400,cs),
(86,400,ls),
(66,400,o),
(50,384,o),
(50,364,cs),
(50,36,ls),
(50,16,o),
(66,0,o),
(86,0,cs),
(350,0,ls),
(370,0,o),
(386,16,o),
(386,36,cs)
);
}
);
width = 436;
}
);
unicode = 118;
},
{
glyphname = w;
lastChange = "2024-01-15 12:25:18 +0000";
layers = (
{
layerId = m01;
shapes = (
{
closed = 0;
nodes = (
(386,212,l)
);
},
{
closed = 1;
nodes = (
(350,324,ls),
(370,324,o),
(386,308,o),
(386,288,cs),
(386,248,ls),
(386,228,o),
(402,212,o),
(422,212,cs),
(462,212,ls),
(482,212,o),
(498,228,o),
(498,248,cs),
(498,401,ls),
(498,421,o),
(514,437,o),
(534,437,cs),
(574,437,ls),
(594,437,o),
(610,421,o),
(610,401,cs),
(610,36,ls),
(610,16,o),
(594,0,o),
(574,0,cs),
(86,0,ls),
(66,0,o),
(50,16,o),
(50,36,cs),
(50,401,ls),
(50,421,o),
(66,437,o),
(86,437,cs),
(126,437,ls),
(146,437,o),
(162,421,o),
(162,401,cs),
(162,248,ls),
(162,228,o),
(178,212,o),
(198,212,cs),
(238,212,ls),
(258,212,o),
(274,228,o),
(274,248,cs),
(274,288,ls),
(274,308,o),
(290,324,o),
(310,324,cs)
);
}
);
width = 660;
}
);
unicode = 119;
},
{
glyphname = x;
lastChange = "2024-01-15 12:25:21 +0000";
layers = (
{
layerId = m01;
shapes = (
{
closed = 1;
nodes = (
(416,414,ls),
(416,429,o),
(397,442,o),
(373,442,cs),
(327,442,ls),
(303,442,o),
(284,429,o),
(284,414,cs),
(284,374,ls),
(284,359,o),
(266,347,o),
(242,347,cs),
(194,347,ls),
(170,347,o),
(152,359,o),
(152,374,cs),
(152,412,ls),
(152,427,o),
(133,439,o),
(109,439,cs),
(63,439,ls),
(39,439,o),
(20,427,o),
(20,412,cs),
(20,290,ls),
(20,274,o),
(39,252,o),
(63,252,cs),
(373,252,ls),
(397,252,o),
(416,274,o),
(416,290,cs)
);
},
{
closed = 1;
nodes = (
(422,28,ls),
(423,13,o),
(403,0,o),
(379,0,cs),
(313,0,ls),
(289,0,o),
(266,13,o),
(270,28,cs),
(280,70,ls),
(284,85,o),
(262,97,o),
(238,97,cs),
(190,97,ls),
(166,97,o),
(145,85,o),
(148,70,cs),
(158,27,ls),
(162,11,o),
(139,0,o),
(115,0,cs),
(49,0,ls),
(25,0,o),
(5,11,o),
(6,27,cs),
(16,194,ls),
(17,210,o),
(35,222,o),
(59,222,cs),
(369,222,ls),
(393,222,o),
(411,210,o),
(412,194,cs)
);
}
);
width = 436;
}
);
unicode = 120;
},
{
glyphname = y;
lastChange = "2024-01-15 12:23:13 +0000";
layers = (
{
layerId = m01;
shapes = (
{
closed = 1;
nodes = (
(250,236,ls),
(250,216,o),
(234,200,o),
(214,200,cs),
(186,200,ls),
(166,200,o),
(150,216,o),
(150,236,cs),
(150,264,ls),
(150,284,o),
(134,300,o),
(114,300,cs),
(86,300,ls),
(66,300,o),
(50,284,o),
(50,264,cs),
(50,36,ls),
(50,16,o),
(66,0,o),
(86,0,cs),
(214,0,ls),
(234,0,o),
(257,-17,o),
(250,-36,cs),
(240,-64,ls),
(233,-83,o),
(256,-100,o),
(276,-100,cs),
(324,-100,ls),
(344,-100,o),
(360,-84,o),
(360,-64,cs),
(350,364,ls),
(350,384,o),
(334,400,o),
(314,400,cs),
(286,400,ls),
(266,400,o),
(250,384,o),
(250,364,cs)
);
}
);
width = 410;
}
);
unicode = 121;
},
{
glyphname = z;
lastChange = "2024-01-05 11:05:01 +0000";
layers = (
{
layerId = m01;
shapes = (
{
closed = 1;
nodes = (
(50,236,ls),
(50,216,o),
(66,200,o),
(86,200,cs),
(171,200,ls),
(191,200,o),
(207,184,o),
(207,164,cs),
(207,36,ls),
(207,16,o),
(223,0,o),
(243,0,cs),
(351,0,ls),
(371,0,o),
(394,-17,o),
(387,-36,cs),
(377,-64,ls),
(370,-83,o),
(393,-100,o),
(413,-100,cs),
(481,-100,ls),
(501,-100,o),
(518,-84,o),
(517,-64,cs),
(507,164,ls),
(506,184,o),
(491,200,o),
(471,200,cs),
(386,200,ls),
(366,200,o),
(350,216,o),
(350,236,cs),
(350,264,ls),
(350,284,o),
(334,300,o),
(314,300,cs),
(86,300,ls),
(66,300,o),
(50,284,o),
(50,264,cs)
);
}
);
width = 557;
}
);
unicode = 122;
},
{
glyphname = period;
lastChange = "2023-12-23 16:13:14 +0000";
layers = (
{
layerId = m01;
shapes = (
{
closed = 1;
nodes = (
(25,35,ls),
(25,15,o),
(41,-1,o),
(61,-1,cs),
(89,-1,ls),
(109,-1,o),
(125,15,o),
(125,35,cs),
(125,63,ls),
(125,83,o),
(109,99,o),
(89,99,cs),
(61,99,ls),
(41,99,o),
(25,83,o),
(25,63,cs)
);
}
);
width = 150;
}
);
unicode = 46;
},
{
glyphname = comma;
lastChange = "2024-01-05 10:57:18 +0000";
layers = (
{
layerId = m01;
shapes = (
{
closed = 1;
nodes = (
(25,-45,ls),
(25,-65,o),
(54,-101,o),
(61,-81,cs),
(89,-1,ls),
(96,19,o),
(125,15,o),
(125,35,cs),
(125,63,ls),
(125,83,o),
(109,99,o),
(89,99,cs),
(61,99,ls),
(41,99,o),
(25,83,o),
(25,63,cs)
);
}
